<svg xmlns="http://www.w3.org/2000/svg" width="170" height="41" viewBox="0 0 170 41" fill="none"><path d="M51.277 29.32H63.229V25.72H55.525V12.16H51.277V29.32Z" fill="#82868E"/><path d="M70.311 26.92C68.607 26.92 67.719 25.44 67.719 23.2C67.719 20.97 68.607 19.46 70.311 19.46C72.015 19.46 72.927 20.97 72.927 23.2C72.927 25.44 72.015 26.92 70.311 26.92ZM70.335 29.71C74.295 29.71 76.887 26.9 76.887 23.2C76.887 19.51 74.295 16.7 70.335 16.7C66.399 16.7 63.759 19.51 63.759 23.2C63.759 26.9 66.399 29.71 70.335 29.71Z" fill="#82868E"/><path d="M83.741 33.57C85.565 33.57 87.173 33.16 88.253 32.2C89.237 31.32 89.885 29.97 89.885 28.12V17.04H86.141V18.36H86.093C85.373 17.32 84.269 16.68 82.637 16.68C79.589 16.68 77.477 19.22 77.477 22.82C77.477 26.59 80.045 28.65 82.805 28.65C84.293 28.65 85.229 28.05 85.949 27.24H86.045V28.46C86.045 29.95 85.349 30.81 83.693 30.81C82.397 30.81 81.749 30.26 81.533 29.61H77.741C78.125 32.18 80.357 33.57 83.741 33.57ZM83.717 25.75C82.253 25.75 81.293 24.55 81.293 22.7C81.293 20.83 82.253 19.63 83.717 19.63C85.349 19.63 86.213 21.02 86.213 22.68C86.213 24.4 85.421 25.75 83.717 25.75Z" fill="#82868E"/><path d="M97.583 26.92C95.879 26.92 94.991 25.44 94.991 23.2C94.991 20.97 95.879 19.46 97.583 19.46C99.287 19.46 100.199 20.97 100.199 23.2C100.199 25.44 99.287 26.92 97.583 26.92ZM97.607 29.71C101.567 29.71 104.159 26.9 104.159 23.2C104.159 19.51 101.567 16.7 97.607 16.7C93.671 16.7 91.031 19.51 91.031 23.2C91.031 26.9 93.671 29.71 97.607 29.71Z" fill="#82868E"/><path d="M105.302 29.32H109.214V17.04H105.302V29.32ZM105.302 15.33H109.214V12.16H105.302V15.33Z" fill="#82868E"/><path d="M110.911 33.38H114.823V28.05H114.871C115.639 29.08 116.767 29.71 118.351 29.71C121.567 29.71 123.703 27.16 123.703 23.18C123.703 19.48 121.711 16.68 118.447 16.68C116.767 16.68 115.567 17.42 114.727 18.52H114.655V17.04H110.911V33.38ZM117.343 26.68C115.663 26.68 114.703 25.32 114.703 23.32C114.703 21.33 115.567 19.82 117.271 19.82C118.951 19.82 119.743 21.21 119.743 23.32C119.743 25.41 118.831 26.68 117.343 26.68Z" fill="#82868E"/><path d="M130.07 29.71C133.29 29.71 135.66 28.32 135.66 25.63C135.66 22.48 133.12 21.93 130.96 21.57C129.4 21.28 128.01 21.16 128.01 20.3C128.01 19.53 128.75 19.17 129.71 19.17C130.79 19.17 131.54 19.51 131.68 20.61H135.28C135.09 18.19 133.22 16.68 129.74 16.68C126.83 16.68 124.432 18.02 124.432 20.61C124.432 23.49 126.71 24.07 128.85 24.43C130.48 24.72 131.97 24.84 131.97 25.94C131.97 26.73 131.22 27.16 130.05 27.16C128.75 27.16 127.94 26.56 127.79 25.34H124.096C124.216 28.05 126.47 29.71 130.07 29.71Z" fill="#82868E"/><path d="M140.98 29.68C142.68 29.68 143.76 29.01 144.65 27.81H144.72V29.32H148.47V17.04H144.55V23.9C144.55 25.36 143.74 26.37 142.39 26.37C141.15 26.37 140.55 25.63 140.55 24.28V17.04H136.66V25.1C136.66 27.84 138.15 29.68 140.98 29.68Z" fill="#82868E"/><path d="M150.17 29.32H154.08V22.44C154.08 20.97 154.8 19.94 156.02 19.94C157.2 19.94 157.75 20.71 157.75 22.03V29.32H161.66V22.44C161.66 20.97 162.36 19.94 163.61 19.94C164.78 19.94 165.34 20.71 165.34 22.03V29.32H169.25V21.33C169.25 18.57 167.86 16.68 165.07 16.68C163.49 16.68 162.17 17.35 161.21 18.84H161.16C160.54 17.52 159.31 16.68 157.7 16.68C155.93 16.68 154.75 17.52 153.98 18.79H153.91V17.04H150.17V29.32Z" fill="#82868E"/><path d="M20.102 40.32C31.147 40.32 40.102 31.37 40.102 20.32C40.102 9.28 31.147 0.32 20.102 0.32C9.056 0.32 0.102 9.28 0.102 20.32C0.102 31.37 9.056 40.32 20.102 40.32ZM23.189 15.78C24.893 14.07 24.893 11.31 23.189 9.6C21.484 7.9 18.72 7.9 17.015 9.6C15.31 11.31 15.31 14.07 17.015 15.78L20.102 18.86L23.189 15.78ZM24.649 23.41C26.354 25.12 29.118 25.12 30.823 23.41C32.528 21.71 32.528 18.94 30.823 17.24C29.118 15.53 26.354 15.53 24.649 17.24L21.562 20.32L24.649 23.41ZM23.189 31.04C24.893 29.34 24.893 26.58 23.189 24.87L20.102 21.78L17.015 24.87C15.31 26.58 15.31 29.34 17.015 31.04C18.72 32.75 21.484 32.75 23.189 31.04ZM9.38 23.41C7.675 21.71 7.675 18.94 9.38 17.24C11.085 15.53 13.849 15.53 15.554 17.24L18.641 20.32L15.554 23.41C13.849 25.12 11.085 25.12 9.38 23.41Z" fill-rule="evenodd" clip-rule="evenodd" fill="#82868E"/></svg>
